<svg xmlns="http://www.w3.org/2000/svg" height="24" viewBox="0 -960 960 960" width="24">
    <path d="M784-120 532-372q-30 24-69 38t-83 14q-109 0-184.5-75.5T120-580q0-109 75.5-184.5T380-840q109 0 184.5 75.5T640-580q0 44-14 83t-38 69l252 252-56 56ZM380-400q75 0 127.5-52.5T560-580q0-75-52.5-127.5T380-760q-75 0-127.5 52.5T200-580q0 75 52.5 127.5T380-400Z"/>
    <path transform="scale(0.3) translate(770, -1500)" d="M340-80v-60l80-60v-220L80-320v-80l340-200v-220q0-25 17.5-42.5T480-880q25 0 42.5 17.5T540-820v220l340 200v80L540-420v220l80 60v60l-140-40-140 40Z"/>
</svg>